PathFileType	4	(X/Y/Z)	./resultDataOpenSim/trcMotMarkerGrf/sub09/qtm-14-04.trc
DataRate	CameraRate	NumFrames	NumMarkers	Units	OrigDataRate	OrigDataStartFrame	OrigNumFrames
250.000000	250.000000	5	24	m	250.000000	180	479
Frame#	Time	L.Toe.Tip			R.Toe.Tip			L.Ankle.Lat			R.Ankle.Lat			L.Ankle.Med			R.Ankle.Med			L.Heel			R.Heel			L.Knee.Lat			R.Knee.Lat			L.Knee.Med			R.Knee.Med			L.Thigh.Upper			R.Thigh.Upper			L.ASIS			R.ASIS			V.Sacral			L.Acromium			R.Acromium			C7			L.Elbow			R.Elbow			L.Wrist.Lat			R.Wrist.Lat
		X1	Y1	Z1	X2	Y2	Z2	X3	Y3	Z3	X4	Y4	Z4	X5	Y5	Z5	X6	Y6	Z6	X7	Y7	Z7	X8	Y8	Z8	X9	Y9	Z9	X10	Y10	Z10	X11	Y11	Z11	X12	Y12	Z12	X13	Y13	Z13	X14	Y14	Z14	X15	Y15	Z15	X16	Y16	Z16	X17	Y17	Z17	X18	Y18	Z18	X19	Y19	Z19	X20	Y20	Z20	X21	Y21	Z21	X22	Y22	Z22	X23	Y23	Z23	X24	Y24	Z24

180	0.716	0.11649325	-0.032408066	0.0047446494	-0.65393655	0.052235179	0.10432106	-0.028182839	-0.0019608118	-0.057085315	-0.7310803	0.18322845	0.13933561	-0.021112811	0.016131808	0.040644231	-0.6758689	0.18732172	0.057319859	-0.10195773	-0.03792118	-0.025106895	-0.77333289	0.21632967	0.074023523	-0.043733328	0.411778	-0.099193923	-0.34515484	0.42493763	0.22294502	-0.061991134	0.40420381	0.025554075	-0.32955662	0.39232397	0.097146434	-0.18960838	0.79796731	-0.14409859	-0.27681077	0.81811956	0.21807823	-0.13018988	0.88827267	-0.071443269	-0.15885988	0.89392084	0.16693659	-0.31247833	0.94304603	0.012131718	-0.16883124	1.3415242	-0.14191075	-0.21299584	1.3617252	0.18703777	-0.26034467	1.3961931	0.016508343	-0.33576025	1.0196201	-0.19157658	-0.32701027	1.0090477	0.27549419	-0.24892616	0.77450155	-0.24365145	-0.11428824	0.83035524	0.28565648
181	0.72	0.11635346	-0.032549336	0.0053520282	-0.65050279	0.054448711	0.10478444	-0.027895447	-0.0011936056	-0.057362895	-0.72256917	0.18877982	0.1397599	-0.021260484	0.016681109	0.040391718	-0.66670538	0.19087455	0.058168654	-0.10171467	-0.038028222	-0.025755785	-0.76316137	0.22348707	0.074453558	-0.034595	0.41368222	-0.098895173	-0.33402341	0.42268997	0.22453879	-0.054165039	0.40708703	0.025582599	-0.31615977	0.38845868	0.09892027	-0.18182077	0.79702038	-0.14510267	-0.26904553	0.81617935	0.21800342	-0.12369906	0.88635156	-0.071914995	-0.15108544	0.89197632	0.1660343	-0.30528227	0.94278519	0.010986956	-0.16074887	1.3403412	-0.14253652	-0.20689688	1.3603773	0.18652016	-0.25260165	1.3952114	0.015626135	-0.32762455	1.0185524	-0.19231258	-0.32130689	1.0078453	0.2744462	-0.24068841	0.77338272	-0.24409738	-0.10940379	0.82862117	0.28597701
182	0.724	0.11593265	-0.032732066	0.0056217339	-0.64664324	0.056802644	0.10530009	-0.027854895	-0.0006319339	-0.057829677	-0.71325558	0.19427577	0.1402821	-0.021460487	0.017440604	0.039832509	-0.65704735	0.19451482	0.058753207	-0.10166736	-0.038472876	-0.026401025	-0.75254963	0.23061853	0.075305003	-0.025263105	0.41554327	-0.098859846	-0.32242341	0.42043205	0.22573186	-0.045759995	0.41042024	0.025402675	-0.302712	0.38511197	0.10042824	-0.17489687	0.79686909	-0.14619872	-0.26132762	0.81418089	0.21800974	-0.11755773	0.88471997	-0.072533145	-0.14363862	0.89014432	0.1650841	-0.29818804	0.94277838	0.010500583	-0.15258989	1.3391507	-0.14317213	-0.2007428	1.3590842	0.18609646	-0.24454473	1.3944434	0.014693856	-0.31944322	1.0173957	-0.19300416	-0.31543677	1.0066115	0.27329639	-0.23242266	0.77222681	-0.24455945	-0.10454771	0.82685428	0.28632455
183	0.728	0.115738	-0.032930828	0.0054506531	-0.64226494	0.05926613	0.10585669	-0.02763799	-0.00027366639	-0.058216249	-0.70320026	0.19972863	0.14089889	-0.021317527	0.01811514	0.039281597	-0.64683561	0.19827386	0.059155612	-0.10153227	-0.038790055	-0.026836352	-0.74148557	0.23767907	0.076440063	-0.0161985	0.41698827	-0.099184421	-0.31015997	0.41818514	0.22642519	-0.037197082	0.41362079	0.024887155	-0.28929757	0.38239581	0.10155347	-0.16886005	0.79737008	-0.14737681	-0.25370199	0.81213943	0.2180633	-0.11161872	0.88350473	-0.073277474	-0.1365015	0.8884842	0.16410612	-0.29115266	0.94303354	0.010924059	-0.14435162	1.3379867	-0.14379637	-0.1944589	1.3578683	0.18574168	-0.23638872	1.3938306	0.013786363	-0.31123582	1.0161843	-0.19365443	-0.30956987	1.0054148	0.27208439	-0.22409032	0.77105968	-0.24499878	-0.099744133	0.82506872	0.28669546
184	0.732	0.11599049	-0.033120285	0.0049690014	-0.63730186	0.061820844	0.10648897	-0.027068908	-4.6015708e-05	-0.058432191	-0.69245741	0.20511881	0.14158237	-0.020644638	0.0185613	0.038902671	-0.63615877	0.20217461	0.059529727	-0.10119734	-0.038696107	-0.027013825	-0.73002957	0.24465328	0.077703159	-0.007710746	0.41788144	-0.099821168	-0.29721355	0.41598421	0.22668748	-0.02874297	0.41627184	0.024079481	-0.27599864	0.38031749	0.1022689	-0.16367183	0.79824952	-0.1486399	-0.24623175	0.81009844	0.21812907	-0.10574618	0.88279189	-0.074116443	-0.12963608	0.88702334	0.16313052	-0.28404121	0.94348139	0.012130587	-0.13603772	1.3368918	-0.14438906	-0.18797644	1.3567548	0.18541612	-0.22829705	1.3933221	0.012950515	-0.3029757	1.014966	-0.19432752	-0.30383209	1.0043024	0.27084297	-0.21565514	0.76990668	-0.24537532	-0.09501494	0.82328543	0.28708691
